<svg width="43" height="43" viewBox="0 0 43 43" fill="none" xmlns="http://www.w3.org/2000/svg">
<path d="M0 20.6827C0 20.5747 0 20.4678 0 20.3597C0.0648287 20.3677 0.0363951 20.3142 0.0375324 20.2938C0.0454939 20.0822 0.0671034 19.8729 0.0841636 19.6625C0.122833 19.1644 0.186525 18.6685 0.263864 18.1749C0.371912 17.4902 0.514081 16.8112 0.686957 16.139C1.10095 14.5399 1.68896 13.0079 2.45439 11.5441C3.27783 9.96779 4.28097 8.5154 5.46154 7.18356C6.32365 6.21113 7.26651 5.32514 8.28784 4.52331C9.2944 3.73285 10.3646 3.03907 11.4974 2.4431C13.0715 1.61398 14.7229 0.988437 16.4551 0.578993C17.0056 0.448198 17.5606 0.339013 18.1191 0.252574C18.5035 0.193432 18.889 0.143389 19.2757 0.105857C19.5567 0.0785603 19.8376 0.051264 20.1197 0.0387531C20.1413 0.0376158 20.1947 0.0637748 20.1868 0.0012207C20.2948 0.0012207 20.4017 0.0012207 20.5098 0.0012207C20.5598 0.0376158 20.6099 0.0194182 20.6599 0.0012207C21.1899 0.0012207 21.721 0.0012207 22.251 0.0012207C22.2727 0.028517 22.2943 0.0296544 22.3159 0.0012207C22.4239 0.0012207 22.5308 0.0012207 22.6389 0.0012207C22.623 0.0125942 22.6252 0.0262423 22.6412 0.0307917C22.665 0.0376158 22.6901 0.0410278 22.7151 0.0421652C23.1291 0.0592254 23.5419 0.103582 23.9537 0.149076C24.6588 0.22869 25.3571 0.345837 26.0498 0.497104C27.6068 0.838308 29.1081 1.34556 30.5525 2.02115C32.6214 2.98903 34.4889 4.25603 36.1551 5.81647C37.024 6.62968 37.8213 7.50998 38.5435 8.45739C39.5956 9.83472 40.4702 11.3167 41.1674 12.9044C41.7213 14.1635 42.1455 15.4657 42.4537 16.8055C42.5879 17.389 42.6949 17.977 42.779 18.5684C42.8359 18.9744 42.8859 19.3816 42.9155 19.7922C42.9303 19.9992 42.953 20.205 42.9599 20.4132C42.961 20.4405 42.9405 20.4882 42.9985 20.4905C42.9985 20.6054 42.9985 20.7203 42.9985 20.834C42.9735 20.8511 42.9735 20.8658 42.9985 20.8988C42.9985 21.3504 42.9985 21.8019 42.9985 22.2534C42.9826 22.3034 42.961 22.3535 42.9985 22.4035C42.9985 22.5116 42.9985 22.6185 42.9985 22.7265C42.9462 22.7197 42.9633 22.7629 42.961 22.7845C42.9519 22.9017 42.9451 23.02 42.9382 23.1383C42.8996 23.7263 42.8279 24.3109 42.7358 24.8932C42.597 25.7724 42.4048 26.6402 42.1535 27.4932C41.1719 30.8301 39.4818 33.7611 37.0957 36.2894C36.212 37.2254 35.2475 38.0728 34.2091 38.8359C32.7897 39.8777 31.2679 40.7353 29.6381 41.404C28.4814 41.8783 27.294 42.2491 26.0714 42.513C25.5312 42.629 24.9886 42.7268 24.4427 42.803C24.0924 42.8519 23.7421 42.8928 23.3884 42.9179C23.1814 42.9326 22.9755 42.9542 22.7674 42.9622C22.7458 42.9633 22.6935 42.9372 22.7014 42.9997C22.5934 42.9997 22.4865 42.9997 22.3784 42.9997C22.3216 42.9622 22.2636 42.9838 22.2067 42.9997C21.7051 42.9997 21.2036 42.9997 20.702 42.9997C20.669 42.9747 20.6531 42.9747 20.6372 42.9997C20.5291 42.9997 20.4222 42.9997 20.3141 42.9997C20.3005 42.9349 20.2459 42.9622 20.2118 42.9599C19.7148 42.9395 19.2212 42.8871 18.7287 42.8223C18.0929 42.7393 17.4628 42.6256 16.8373 42.4868C15.361 42.1581 13.937 41.6759 12.5643 41.0424C10.5523 40.1143 8.728 38.9019 7.08908 37.4131C6.1303 36.543 5.25682 35.5933 4.46863 34.5652C3.2983 33.0343 2.34407 31.3795 1.61162 29.5972C1.09072 28.328 0.694919 27.0212 0.425368 25.6757C0.302534 25.0638 0.20586 24.4485 0.134207 23.8286C0.0909877 23.4522 0.0534553 23.0757 0.0398071 22.6958C0.0386698 22.6628 0.0671034 22.6071 0.00113735 22.5946C0.00113735 22.4866 0.00113735 22.3797 0.00113735 22.2716C0.0386698 22.2147 0.0147855 22.1567 0.00113735 22.0999C0.00113735 21.6768 0.00113735 21.2537 0.00113735 20.8317C0.0170602 20.7828 0.0375324 20.7328 0 20.6827ZM32.1437 8.50743C32.1653 8.3755 32.1232 8.20376 32.0015 8.0525C31.6251 7.58732 31.1747 7.22337 30.6071 7.01069C30.1021 6.82189 29.579 6.77526 29.0456 6.76616C27.931 6.74796 26.9062 7.02661 25.985 7.66125C25.2013 8.20149 24.5826 8.90323 24.0333 9.67094C23.319 10.6718 22.8379 11.7864 22.4444 12.9431C22.1748 13.7358 21.9826 14.5524 21.7165 15.3463C21.5686 15.7865 21.4447 16.2357 21.3139 16.6815C21.2934 16.7498 21.2672 16.7759 21.1945 16.7577C21.1251 16.7407 21.0534 16.735 20.9818 16.7259C19.9491 16.5871 18.9163 16.4484 17.8848 16.3085C16.9442 16.1811 16.0036 16.056 15.0653 15.9218C14.9527 15.9059 14.9356 15.9434 14.9254 16.0355C14.8685 16.5223 14.8128 17.0102 14.7434 17.4959C14.7252 17.6187 14.7696 17.6358 14.8685 17.6506C15.2086 17.6983 15.5475 17.7541 15.8876 17.8075C16.8282 17.9554 17.7688 18.1044 18.7082 18.2534C19.394 18.3614 20.0799 18.4706 20.7657 18.5764C20.843 18.5877 20.8544 18.6162 20.8373 18.6878C20.7543 19.0359 20.6781 19.385 20.5996 19.7342C20.4415 20.4359 20.2823 21.1377 20.1265 21.8394C20.1106 21.9122 20.0844 21.9281 20.0105 21.9156C19.7807 21.8769 19.5498 21.8474 19.3201 21.8144C17.6448 21.571 15.9695 21.3276 14.2942 21.0797C14.202 21.066 14.1861 21.0967 14.177 21.1718C14.119 21.6267 14.0565 22.0805 13.9973 22.5343C13.978 22.681 13.9814 22.6788 14.1247 22.7004C14.574 22.7663 15.0243 22.8346 15.4736 22.9017C16.4995 23.0564 17.5265 23.2122 18.5524 23.3669C18.8993 23.4192 19.2462 23.4704 19.5931 23.5238C19.6283 23.5295 19.6772 23.5238 19.6738 23.5852C19.6659 23.7354 19.6909 23.8866 19.659 24.0356C19.4384 25.0934 19.1973 26.1465 18.9425 27.1975C18.5797 28.6965 18.2123 30.1944 17.8188 31.6854C17.5709 32.6283 17.1773 33.5086 16.5507 34.2695C16.2788 34.6004 15.9854 34.9041 15.5851 35.0895C14.7684 35.4671 14.0144 35.0952 13.6084 34.4128C13.3866 34.042 13.1466 33.6883 12.8463 33.3778C12.819 33.3494 12.7929 33.3209 12.7519 33.3095C12.4835 33.2288 12.2117 33.1674 11.9296 33.1708C11.8068 33.1719 11.701 33.2106 11.6112 33.3016C11.4406 33.4745 11.3302 33.6803 11.262 33.9101C11.2006 34.1171 11.146 34.3275 11.2029 34.5436C11.2825 34.8416 11.469 35.0736 11.701 35.2669C12.0866 35.5865 12.521 35.8151 13.0056 35.9471C13.7062 36.1381 14.4125 36.1381 15.1256 36.0312C15.866 35.9209 16.5689 35.7025 17.2183 35.3249C18.3681 34.6562 19.1643 33.6758 19.7125 32.4793C20.2323 31.3431 20.6679 30.1727 21.0932 28.9979C21.439 28.0425 21.8029 27.094 22.0281 26.0988C22.1828 25.4152 22.3466 24.7328 22.5479 24.0606C22.5672 23.997 22.5832 23.9651 22.6628 23.9765C24.6088 24.2574 26.5548 24.5338 28.4996 24.8147C28.5792 24.8261 28.6031 24.8067 28.6213 24.734C28.7442 24.2631 28.8693 23.7922 28.9989 23.3236C29.0239 23.2327 29.0023 23.2088 28.9148 23.1974C28.6202 23.161 28.3256 23.1189 28.0322 23.0768C27.1883 22.9586 26.3455 22.8391 25.5016 22.7209C24.6645 22.6037 23.8285 22.4866 22.9915 22.3717C22.9221 22.3626 22.8971 22.3455 22.913 22.2648C23.021 21.7098 23.1223 21.1536 23.2258 20.5974C23.3247 20.0663 23.4248 19.5351 23.5249 19.004C23.5351 18.9517 23.5408 18.9119 23.617 18.9233C24.1823 19.012 24.7498 19.095 25.3151 19.1814C26.5889 19.3736 27.8627 19.5659 29.1365 19.7615C29.2184 19.774 29.2457 19.7603 29.2673 19.6785C29.3845 19.2212 29.5085 18.7652 29.6301 18.3091C29.67 18.1612 29.6688 18.1635 29.513 18.1419C29.1945 18.0975 28.875 18.0498 28.5565 18.0031C27.5932 17.8632 26.6298 17.7234 25.6654 17.5835C25.0592 17.4959 24.4541 17.406 23.8479 17.3207C23.7683 17.3094 23.7603 17.2821 23.7831 17.2115C23.8718 16.9352 23.9571 16.6588 24.039 16.3813C24.5394 14.7014 24.9659 13 25.48 11.3235C25.6415 10.7969 25.7802 10.2635 26.0623 9.78126C26.4115 9.18416 26.8084 8.62458 27.3259 8.16054C27.6239 7.89213 27.9776 7.74769 28.3882 7.77726C28.8477 7.81024 29.1911 8.05136 29.4823 8.38801C29.7473 8.69396 30.0123 8.99991 30.2796 9.30471C30.4604 9.51057 30.6617 9.69255 30.9244 9.79264C31.3271 9.94618 31.8855 9.85178 32.0516 9.27742C32.1175 9.0454 32.1323 8.80656 32.1437 8.50743Z" fill="#90B7EF"/>
</svg>
